<svg width="24" height="24" viewBox="0 0 24 24" fill="none" xmlns="http://www.w3.org/2000/svg">
<g id="fb" clip-path="url(#clip0_109_333)">
<path id="Vector" d="M22.68 0H1.32C0.969914 0 0.634167 0.139071 0.386619 0.386619C0.139071 0.634167 0 0.969914 0 1.32V22.68C0 22.8533 0.0341429 23.025 0.100479 23.1851C0.166815 23.3453 0.264046 23.4908 0.386619 23.6134C0.509193 23.736 0.654708 23.8332 0.814858 23.8995C0.975008 23.9659 1.14666 24 1.32 24H12.816V14.7H9.696V11.1H12.816V8.4C12.7562 7.82863 12.8097 7.25107 12.9734 6.70041C13.1372 6.14975 13.4079 5.63679 13.7702 5.19092C14.1325 4.74505 14.5791 4.37502 15.0846 4.10203C15.5901 3.82903 16.1445 3.65843 16.716 3.6C16.9677 3.58202 17.2203 3.58202 17.472 3.6C18.4059 3.59979 19.3391 3.64785 20.268 3.744V6.984H18.36C16.848 6.984 16.56 7.704 16.56 8.748V11.064H20.16L19.692 14.664H16.56V24H22.68C22.8533 24 23.025 23.9659 23.1851 23.8995C23.3453 23.8332 23.4908 23.736 23.6134 23.6134C23.736 23.4908 23.8332 23.3453 23.8995 23.1851C23.9659 23.025 24 22.8533 24 22.68V1.32C24 1.14666 23.9659 0.975008 23.8995 0.814858C23.8332 0.654708 23.736 0.509193 23.6134 0.386619C23.4908 0.264046 23.3453 0.166815 23.1851 0.100479C23.025 0.0341429 22.8533 0 22.68 0Z" fill="white"/>
</g>
<defs>
<clipPath id="clip0_109_333">
<rect width="24" height="24" fill="white"/>
</clipPath>
</defs>
</svg>
