<svg width="177" height="28" viewBox="0 0 177 28" fill="none" xmlns="http://www.w3.org/2000/svg">
<g id="Group">
<path id="Vector" d="M13.9761 12.9983C12.5805 11.7482 10.9656 11.3315 9.09144 11.3315C6.77871 11.3315 5.48278 12.0134 5.48278 13.1877C5.48278 14.4 6.63914 15.0819 9.17119 15.2334C12.8995 15.4607 17.6246 16.2563 17.6246 21.2379C17.6246 24.5526 14.7736 27.3939 9.13131 27.3939C6.00115 27.3939 2.89092 26.9014 0 24.0412L2.41242 20.7265C3.80804 22.2039 7.01795 23.3214 9.231 23.3593C11.0652 23.3972 12.7998 22.488 12.7998 21.1053C12.7998 19.8173 11.6833 19.2869 8.87213 19.1354C5.14384 18.8702 0.697808 17.5822 0.697808 13.3203C0.697808 8.98273 5.42296 7.46741 9.03163 7.46741C12.1219 7.46741 14.4347 8.03565 16.7275 9.94874L13.9761 12.9983Z" fill="#ED701F"/>
<path id="Vector_2" d="M36.4057 8.01671H41.091V26.7688H36.4854L36.2462 24.0223C35.1297 26.2384 32.0394 27.2992 29.8463 27.337C24.0046 27.3749 19.6782 23.9465 19.6782 17.3738C19.6782 10.8958 24.204 7.52423 29.9659 7.56211C32.6176 7.56211 35.1297 8.73649 36.2462 10.6117L36.4057 8.01671ZM24.5429 17.3738C24.5429 20.9538 27.1547 23.0752 30.3846 23.0752C38.0804 23.0752 38.0804 11.6914 30.3846 11.6914C27.1547 11.7103 24.5429 13.7939 24.5429 17.3738Z" fill="#ED701F"/>
<path id="Vector_3" d="M50.0628 0.174927V26.7688H45.218V0.174927H50.0628Z" fill="#ED701F"/>
<path id="Vector_4" d="M74.825 7.97882L66.4114 26.8446H61.128L52.6746 7.97882H57.9978L60.7293 14.1916L63.7797 22.1092L66.7902 14.2674L69.5216 7.97882H74.825Z" fill="#ED701F"/>
<path id="Vector_5" d="M92.8482 8.01671H97.5335V26.7688H92.928L92.6887 24.0223C91.5722 26.2384 88.4819 27.2992 86.2689 27.337C80.4272 27.3749 76.1008 23.9465 76.1008 17.3738C76.1008 10.8958 80.6266 7.52423 86.3885 7.56211C89.0203 7.56211 91.5523 8.73649 92.6688 10.6117L92.8482 8.01671ZM80.9855 17.3738C80.9855 20.9538 83.5973 23.0752 86.8271 23.0752C94.523 23.0752 94.523 11.6914 86.8271 11.6914C83.5973 11.7103 80.9855 13.7939 80.9855 17.3738Z" fill="#ED701F"/>
<path id="Vector_6" d="M107.702 2.73203V8.05459H113.145V12.0512H107.662V20.1582C107.662 21.9387 108.699 22.829 110.214 22.829C110.971 22.829 111.849 22.6017 112.586 22.2607L113.962 26.2005C112.566 26.7309 111.39 26.9582 109.915 26.9961C105.628 27.1476 102.817 24.8178 102.817 20.1393V12.0512H99.1287V8.05459H102.817V3.2245L107.702 2.73203Z" fill="#ED701F"/>
<path id="Vector_7" d="M136.431 17.4117C136.431 22.81 132.544 27.1855 126.144 27.1855C119.744 27.1855 115.896 22.81 115.896 17.4117C115.896 12.0512 119.824 7.63788 126.104 7.63788C132.384 7.63788 136.431 12.0512 136.431 17.4117ZM120.761 17.4117C120.761 20.2719 122.555 22.9237 126.124 22.9237C129.693 22.9237 131.487 20.2529 131.487 17.4117C131.487 14.5894 129.414 11.8618 126.124 11.8618C122.615 11.8618 120.761 14.5894 120.761 17.4117Z" fill="#ED701F"/>
<path id="Vector_8" d="M144.307 8.01672L144.666 10.176C146.181 7.84624 148.234 7.50529 150.228 7.50529C152.262 7.50529 154.236 8.26295 155.312 9.2858L153.119 13.3203C152.122 12.5248 151.205 12.1081 149.59 12.1081C147.018 12.1081 144.666 13.3961 144.666 16.8624V26.7499H139.781V8.01672H144.307Z" fill="#ED701F"/>
<path id="Vector_9" d="M161.333 19.0407C161.652 21.3705 163.786 23.0373 167.215 23.0373C169.009 23.0373 171.382 22.3933 172.498 21.2947L175.628 24.2306C173.535 26.2763 170.146 27.2802 167.135 27.2802C160.336 27.2802 156.289 23.2836 156.289 17.2791C156.289 11.5777 160.376 7.46741 166.776 7.46741C173.375 7.46741 177.502 11.3504 176.745 19.0785H161.333V19.0407ZM172.079 15.2145C171.76 12.771 169.767 11.5588 166.956 11.5588C164.324 11.5588 162.151 12.771 161.433 15.2145H172.079Z" fill="#ED701F"/>
</g>
</svg>
