<svg width="147" height="28" viewBox="0 0 147 28" fill="none" xmlns="http://www.w3.org/2000/svg">
<g id="Group">
<path id="Vector" d="M5.12564 8.66073L5.48452 10.8201C6.99976 8.49025 9.05331 8.14931 11.047 8.14931C13.0807 8.14931 15.0544 8.90697 16.1311 9.92981L13.938 13.9643C12.9411 13.1688 12.024 12.7521 10.409 12.7521C7.85705 12.7521 5.48452 14.0401 5.48452 17.5064V27.3939H0.599854V8.64179H5.12564V8.66073Z" fill="#ED701F"/>
<path id="Vector_2" d="M33.6362 8.66072H38.3214V27.4128H33.7159L33.4767 24.6663C32.3602 26.8824 29.2699 27.9432 27.0767 27.9811C21.2351 28.0189 16.9087 24.5905 16.9087 18.0178C16.9087 11.5588 21.4345 8.16824 27.1964 8.20612C29.848 8.20612 32.3602 9.3805 33.4767 11.2557L33.6362 8.66072ZM21.7734 18.0178C21.7734 21.5978 24.3852 23.7192 27.635 23.7192C35.3308 23.7192 35.3308 12.3354 27.635 12.3354C24.3852 12.3543 21.7734 14.4568 21.7734 18.0178Z" fill="#ED701F"/>
<path id="Vector_3" d="M56.9828 27.4317V17.62C56.9828 14.7599 55.3479 12.6005 52.2178 12.6005C49.2072 12.6005 47.1736 15.0061 47.1736 17.8473V27.4317H42.3289V8.62283H46.6951L47.0141 11.1799C49.0079 9.32367 51.0215 8.35765 53.4938 8.35765C58.1392 8.35765 61.8675 11.6724 61.8675 17.5632V27.4128H56.9828V27.4317Z" fill="#ED701F"/>
<path id="Vector_4" d="M81.3862 8.66072V10.8579L72.2947 22.8479H81.4659V27.4128H64.8381V25.4808L74.2885 12.8847H65.5559V8.66072H81.3862Z" fill="#ED701F"/>
<path id="Vector_5" d="M89.381 8.66072V18.4724C89.381 21.3326 91.0159 23.4919 94.146 23.4919C97.1366 23.4919 99.1902 21.0863 99.1902 18.2451V8.66072H104.035V27.4507H99.6687L99.3497 24.8936C97.3161 26.7877 95.422 27.7159 92.6707 27.7159C87.9455 27.7159 84.4963 24.3253 84.4963 18.5103V8.66072H89.381Z" fill="#ED701F"/>
<path id="Vector_6" d="M113.226 0.818939V27.4128H108.381V0.818939H113.226Z" fill="#ED701F"/>
<path id="Vector_7" d="M122.357 0.818939V27.4128H117.513V0.818939H122.357Z" fill="#ED701F"/>
<path id="Vector_8" d="M142.295 8.66072H146.98V27.4128H142.375L142.135 24.6663C141.019 26.8824 137.928 27.9432 135.715 27.9811C129.874 28.0189 125.547 24.5905 125.547 18.0178C125.547 11.5588 130.073 8.16824 135.835 8.20612C138.467 8.20612 140.999 9.3805 142.115 11.2557L142.295 8.66072ZM130.452 18.0178C130.452 21.5978 133.064 23.7192 136.294 23.7192C143.989 23.7192 143.989 12.3354 136.294 12.3354C133.044 12.3543 130.452 14.4568 130.452 18.0178Z" fill="#ED701F"/>
</g>
</svg>
