<svg width="177" height="28" viewBox="0 0 177 28" fill="none" xmlns="http://www.w3.org/2000/svg">
<g id="Group">
<path id="Vector" d="M13.9761 12.9982C12.5805 11.7481 10.9656 11.3314 9.09144 11.3314C6.77871 11.3314 5.48278 12.0132 5.48278 13.1876C5.48278 14.3999 6.63914 15.0818 9.17119 15.2333C12.8995 15.4606 17.6246 16.2561 17.6246 21.2378C17.6246 24.5525 14.7736 27.3937 9.13131 27.3937C6.00115 27.3937 2.89092 26.9013 0 24.0411L2.41242 20.7263C3.80804 22.2038 7.01795 23.3213 9.231 23.3592C11.0652 23.3971 12.7998 22.4879 12.7998 21.1052C12.7998 19.8171 11.6833 19.2868 8.87213 19.1353C5.14384 18.8701 0.697808 17.582 0.697808 13.3202C0.697808 8.9826 5.42296 7.46729 9.03163 7.46729C12.1219 7.46729 14.4347 8.03553 16.7275 9.94862L13.9761 12.9982Z" fill="white"/>
<path id="Vector_2" d="M36.4057 8.01644H41.091V26.7685H36.4854L36.2462 24.022C35.1297 26.2382 32.0394 27.2989 29.8463 27.3368C24.0046 27.3747 19.6782 23.9462 19.6782 17.3735C19.6782 10.8955 24.204 7.52396 29.9659 7.56184C32.6176 7.56184 35.1297 8.73621 36.2462 10.6114L36.4057 8.01644ZM24.5429 17.3735C24.5429 20.9535 27.1547 23.0749 30.3846 23.0749C38.0804 23.0749 38.0804 11.6911 30.3846 11.6911C27.1547 11.71 24.5429 13.7936 24.5429 17.3735Z" fill="white"/>
<path id="Vector_3" d="M50.0628 0.174805V26.7687H45.218V0.174805H50.0628Z" fill="white"/>
<path id="Vector_4" d="M74.825 7.97852L66.4114 26.8443H61.128L52.6746 7.97852H57.9978L60.7293 14.1913L63.7797 22.1089L66.7902 14.2671L69.5216 7.97852H74.825Z" fill="white"/>
<path id="Vector_5" d="M92.8482 8.01644H97.5335V26.7685H92.928L92.6887 24.022C91.5722 26.2382 88.4819 27.2989 86.2689 27.3368C80.4272 27.3747 76.1008 23.9462 76.1008 17.3735C76.1008 10.8955 80.6266 7.52396 86.3885 7.56184C89.0203 7.56184 91.5523 8.73621 92.6688 10.6114L92.8482 8.01644ZM80.9855 17.3735C80.9855 20.9535 83.5973 23.0749 86.8271 23.0749C94.523 23.0749 94.523 11.6911 86.8271 11.6911C83.5973 11.71 80.9855 13.7936 80.9855 17.3735Z" fill="white"/>
<path id="Vector_6" d="M107.702 2.73193V8.0545H113.145V12.0512H107.662V20.1581C107.662 21.9386 108.699 22.8289 110.214 22.8289C110.971 22.8289 111.849 22.6016 112.586 22.2606L113.962 26.2005C112.566 26.7308 111.39 26.9581 109.915 26.996C105.628 27.1475 102.817 24.8177 102.817 20.1392V12.0512H99.1287V8.0545H102.817V3.22441L107.702 2.73193Z" fill="white"/>
<path id="Vector_7" d="M136.431 17.4115C136.431 22.8098 132.544 27.1853 126.144 27.1853C119.744 27.1853 115.896 22.8098 115.896 17.4115C115.896 12.0511 119.824 7.6377 126.104 7.6377C132.384 7.6377 136.431 12.0511 136.431 17.4115ZM120.761 17.4115C120.761 20.2717 122.555 22.9235 126.124 22.9235C129.693 22.9235 131.487 20.2527 131.487 17.4115C131.487 14.5892 129.414 11.8617 126.124 11.8617C122.615 11.8617 120.761 14.5892 120.761 17.4115Z" fill="white"/>
<path id="Vector_8" d="M144.307 8.01679L144.666 10.1761C146.181 7.84632 148.234 7.50537 150.228 7.50537C152.262 7.50537 154.236 8.26303 155.312 9.28587L153.119 13.3204C152.122 12.5249 151.205 12.1082 149.59 12.1082C147.018 12.1082 144.666 13.3962 144.666 16.8625V26.7499H139.781V8.01679H144.307Z" fill="white"/>
<path id="Vector_9" d="M161.333 19.0405C161.652 21.3703 163.786 23.0372 167.215 23.0372C169.009 23.0372 171.382 22.3932 172.498 21.2946L175.628 24.2305C173.535 26.2762 170.146 27.2801 167.135 27.2801C160.336 27.2801 156.289 23.2834 156.289 17.279C156.289 11.5776 160.376 7.46729 166.776 7.46729C173.375 7.46729 177.502 11.3503 176.745 19.0784H161.333V19.0405ZM172.079 15.2144C171.76 12.7709 169.767 11.5587 166.956 11.5587C164.324 11.5587 162.151 12.7709 161.433 15.2144H172.079Z" fill="white"/>
</g>
</svg>
