<svg width="147" height="28" viewBox="0 0 147 28" fill="none" xmlns="http://www.w3.org/2000/svg">
<g id="Group">
<path id="Vector" d="M5.12564 8.66083L5.48452 10.8202C6.99976 8.49036 9.05331 8.14941 11.047 8.14941C13.0807 8.14941 15.0544 8.90707 16.1311 9.92992L13.938 13.9645C12.9411 13.1689 12.024 12.7522 10.409 12.7522C7.85705 12.7522 5.48452 14.0402 5.48452 17.5065V27.394H0.599854V8.64189H5.12564V8.66083Z" fill="white"/>
<path id="Vector_2" d="M33.6362 8.66048H38.3214V27.4126H33.7159L33.4767 24.666C32.3602 26.8822 29.2699 27.9429 27.0767 27.9808C21.2351 28.0187 16.9087 24.5903 16.9087 18.0176C16.9087 11.5585 21.4345 8.168 27.1964 8.20588C29.848 8.20588 32.3602 9.38025 33.4767 11.2555L33.6362 8.66048ZM21.7734 18.0176C21.7734 21.5975 24.3852 23.719 27.635 23.719C35.3308 23.719 35.3308 12.3351 27.635 12.3351C24.3852 12.3541 21.7734 14.4566 21.7734 18.0176Z" fill="white"/>
<path id="Vector_3" d="M56.9828 27.4315V17.6198C56.9828 14.7597 55.3479 12.6003 52.2178 12.6003C49.2072 12.6003 47.1736 15.0059 47.1736 17.8471V27.4315H42.3289V8.6226H46.6951L47.0141 11.1797C49.0079 9.32344 51.0215 8.35742 53.4938 8.35742C58.1392 8.35742 61.8675 11.6722 61.8675 17.563V27.4126H56.9828V27.4315Z" fill="white"/>
<path id="Vector_4" d="M81.3862 8.66064V10.8579L72.2947 22.8478H81.4659V27.4127H64.8381V25.4807L74.2885 12.8846H65.5559V8.66064H81.3862Z" fill="white"/>
<path id="Vector_5" d="M89.381 8.66064V18.4723C89.381 21.3325 91.0159 23.4918 94.146 23.4918C97.1366 23.4918 99.1902 21.0863 99.1902 18.245V8.66064H104.035V27.4506H99.6687L99.3497 24.8935C97.3161 26.7877 95.422 27.7158 92.6707 27.7158C87.9455 27.7158 84.4963 24.3253 84.4963 18.5102V8.66064H89.381Z" fill="white"/>
<path id="Vector_6" d="M113.226 0.818848V27.4127H108.381V0.818848H113.226Z" fill="white"/>
<path id="Vector_7" d="M122.357 0.818848V27.4127H117.513V0.818848H122.357Z" fill="white"/>
<path id="Vector_8" d="M142.295 8.66048H146.98V27.4126H142.375L142.135 24.666C141.019 26.8822 137.928 27.9429 135.715 27.9808C129.874 28.0187 125.547 24.5903 125.547 18.0176C125.547 11.5585 130.073 8.168 135.835 8.20588C138.467 8.20588 140.999 9.38025 142.115 11.2555L142.295 8.66048ZM130.452 18.0176C130.452 21.5975 133.064 23.719 136.294 23.719C143.989 23.719 143.989 12.3351 136.294 12.3351C133.044 12.3541 130.452 14.4566 130.452 18.0176Z" fill="white"/>
</g>
</svg>
