<svg width="24" height="24" viewBox="0 0 24 24" fill="none" xmlns="http://www.w3.org/2000/svg">
<g id="Linkedin" clip-path="url(#clip0_109_325)">
<path id="Vector" d="M24.0001 24.0001V15.2001C24.0001 10.8934 23.0667 7.57341 18.0401 7.57341C17.0949 7.53837 16.158 7.76046 15.3291 8.21599C14.5002 8.67152 13.8105 9.34342 13.3334 10.1601V8.00009H8.56006V24.0001H13.5201V16.0667C13.5201 13.9734 13.9201 11.9601 16.5067 11.9601C19.0934 11.9601 19.0934 14.3467 19.0934 16.2001V24.0001H24.0001Z" fill="white"/>
<path id="Vector_2" d="M0.399902 8H5.33323V24H0.399902V8Z" fill="white"/>
<path id="Vector_3" d="M2.88002 3.0595e-05C2.30665 -0.00260565 1.74542 0.165179 1.26758 0.482086C0.789731 0.798993 0.416825 1.25073 0.196184 1.77996C-0.024456 2.30919 -0.0828768 2.89205 0.0283377 3.45454C0.139552 4.01703 0.415377 4.53378 0.820818 4.93922C1.22626 5.34466 1.74303 5.62051 2.30552 5.73172C2.86801 5.84293 3.45085 5.78451 3.98008 5.56387C4.50931 5.34323 4.96106 4.97033 5.27797 4.49248C5.59488 4.01464 5.76266 3.45341 5.76003 2.88004C5.76003 2.11621 5.45659 1.38366 4.91648 0.843557C4.37638 0.303452 3.64385 3.0595e-05 2.88002 3.0595e-05Z" fill="white"/>
</g>
<defs>
<clipPath id="clip0_109_325">
<rect width="24" height="24" fill="white"/>
</clipPath>
</defs>
</svg>
