<svg width="24" height="20" viewBox="0 0 24 20" fill="none" xmlns="http://www.w3.org/2000/svg">
<g id="twitter" clip-path="url(#clip0_109_330)">
<path id="Vector" d="M23.999 2.31892C23.143 2.7666 21.8522 2.9738 21.4279 3.03355C21.4241 3.01313 21.4204 2.99347 21.4173 2.97305C22.8715 2.07391 23.3162 0.379986 23.3162 0.379986C22.5971 0.797864 21.8265 1.12021 21.0241 1.33887C20.7587 1.41137 20.4889 1.46694 20.2165 1.50523C19.5236 0.793892 18.6343 0.305385 17.6624 0.102193C16.6904 -0.100999 15.6799 -0.0096394 14.7601 0.364587C13.8403 0.738814 13.0531 1.3789 12.4991 2.20297C11.9451 3.02704 11.6495 3.99764 11.6501 4.99063C11.6501 5.08969 11.6501 5.188 11.6591 5.28631C11.6723 5.52212 11.7026 5.75667 11.7499 5.98808C10.4159 5.96842 5.60033 5.5593 1.61054 0.921436C1.61054 0.921436 -0.611975 4.79779 3.12297 7.44606C3.12297 7.44606 1.61054 7.39917 0.805929 6.83126C0.805929 6.83126 0.569989 10.567 4.8721 11.7467C4.8721 11.7467 3.35967 12.1248 2.60345 11.7935C2.60345 11.7935 3.35967 15.009 7.14074 15.2457C7.14074 15.2457 4.4282 17.7298 -0.00170898 17.3721C2.25079 18.7988 4.86313 19.5543 7.52944 19.55C15.3185 19.55 21.6306 13.2372 21.6306 5.44965C21.6306 5.3521 21.6306 5.2553 21.6306 5.15775C21.6306 5.10028 21.6306 5.04281 21.6306 4.98534C21.6306 4.9445 21.6306 4.90366 21.6306 4.86359C23.0704 3.90924 23.999 2.31892 23.999 2.31892Z" fill="white"/>
</g>
<defs>
<clipPath id="clip0_109_330">
<rect width="24" height="19.5565" fill="white"/>
</clipPath>
</defs>
</svg>
