<svg width="24" height="17" viewBox="0 0 24 17" fill="none" xmlns="http://www.w3.org/2000/svg">
<g id="yb" clip-path="url(#clip0_109_322)">
<path id="Vector" d="M24.0001 5.9467C24.057 4.38527 23.7175 2.83486 23.0134 1.44004C22.5336 0.867288 21.8685 0.480492 21.1334 0.346703C18.097 0.0751805 15.0483 -0.036085 12.0001 0.01337C8.96546 -0.0400762 5.93012 0.0667394 2.90676 0.33337C2.31501 0.447533 1.76874 0.729928 1.33342 1.1467C0.489276 2.21229 0.0626307 3.54911 0.133424 4.9067C-0.0265711 7.25954 -0.0265711 9.62053 0.133424 11.9734C0.15952 12.7074 0.266841 13.4363 0.453424 14.1467C0.585243 14.7002 0.850773 15.213 1.22676 15.64C1.6733 16.0608 2.23488 16.3393 2.84009 16.44C5.19254 16.7334 7.56336 16.8538 9.93342 16.8C13.7468 16.8 17.0934 16.8 21.0534 16.4934C21.6565 16.3859 22.2162 16.1084 22.6668 15.6934C22.9745 15.3885 23.2033 15.0132 23.3334 14.6C23.7547 13.4087 23.9798 12.1569 24.0001 10.8934C24.0001 10.28 24.0001 6.60004 24.0001 5.9467ZM9.54676 11.5467V4.80004L16.0001 8.1867C14.1734 9.1867 11.7868 10.32 9.53342 11.5467H9.54676Z" fill="white"/>
</g>
<defs>
<clipPath id="clip0_109_322">
<rect width="24" height="16.8667" fill="white"/>
</clipPath>
</defs>
</svg>
